<svg xmlns="http://www.w3.org/2000/svg" viewBox="0 0 1200 720" role="img" aria-labelledby="t d"><title id="t">Rubicer Slim Duschwanne</title><desc id="d">Technische Darstellung einer flachen Gel-Coat-Duschwanne mit linearem Ablauf</desc><defs><linearGradient id="bg" x1="0" y1="0" x2="1" y2="1"><stop stop-color="#f8fafb"/><stop offset="1" stop-color="#dfe6e9"/></linearGradient><linearGradient id="tray" x1="0" y1="0" x2="0" y2="1"><stop stop-color="#fff"/><stop offset="1" stop-color="#e7ecef"/></linearGradient><filter id="s"><feDropShadow dx="0" dy="24" stdDeviation="24" flood-color="#10293e" flood-opacity=".2"/></filter></defs><rect width="1200" height="720" fill="url(#bg)"/><g transform="translate(120 120)" filter="url(#s)"><path d="M70 60h830l80 70-95 330H115L20 130z" fill="url(#tray)" stroke="#aebbc3" stroke-width="8"/><path d="M70 60l380 205L900 60M115 460l335-195 435 195" fill="none" stroke="#cbd5da" stroke-width="5"/><rect x="365" y="230" width="170" height="42" rx="18" fill="#667985"/><rect x="385" y="243" width="130" height="8" rx="4" fill="#dce3e7"/></g><g font-family="Arial,Helvetica,sans-serif" fill="#10293e"><text x="90" y="610" font-size="52" font-weight="700">LUX · Slim Duschwanne</text><text x="92" y="655" font-size="25" fill="#536b7a">ca. 3,2 cm · Gel Coat · Rutschhemmung Klasse 3 · 8 Standardfarben</text></g><g transform="translate(875 575)"><circle cx="0" cy="0" r="18" fill="#2c2927"/><circle cx="48" cy="0" r="18" fill="#907f6d"/><circle cx="96" cy="0" r="18" fill="#ded2bd"/><circle cx="144" cy="0" r="18" fill="#eee9dc"/><circle cx="192" cy="0" r="18" fill="#555755"/><circle cx="240" cy="0" r="18" fill="#9a9c9d"/></g></svg>